<svg width="256" height="256" version="1.1" viewBox="0 0 67.733 67.733" xml:space="preserve" xmlns="http://www.w3.org/2000/svg"><g><rect transform="scale(1,-1)" y="-67.733" width="67.733" height="67.733" fill="#3a4e48" stroke-width=".2601"/><path transform="scale(.26458)" d="m51.553 163.24c0.13624-22.979 0.39924-42.766 0.59425-44.709 1.6151-16.094 10.505-33.74 22.967-45.589 11.652-11.079 26.291-18.222 42.367-20.671 5.1617-0.78648 15.698-0.78455 20.917 0.0038 17.336 2.6188 32.72 10.508 44.575 22.859 9.8729 10.286 16.541 22.776 19.791 37.067 1.0244 4.5053 1.0458 4.7988 1.1942 16.44 0.0831 6.519 0.2054 26.246 0.27174 43.838l0.12063 31.985h-50.788v-67.63h34.164v-7.1286c0-4.2972-0.20549-8.6962-0.51735-11.075-2.8472-21.72-19.254-41.046-40.618-47.844-5.6144-1.7867-9.101-2.3174-16.565-2.5213-9.1091-0.24892-13.927 0.42539-22.13 3.0971-15.524 5.0564-29.374 18.277-35.74 34.117-2.9382 7.3109-3.7905 12.491-4.1411 25.168l-0.17114 6.1878h34.474v67.63h-51.008zm34.03 7.4079v-17.082h-17.43v34.164h17.43zm102.14 0v-17.082h-17.43v34.164h17.43z" fill="#e1b07e" stroke-width=".34861"/></g></svg>
